<svg xmlns='http://www.w3.org/2000/svg'
             viewBox='-1 -1 26 26' class='map-icon' width='28' height='45'>
  <!-- coloured outer ring -->
  <path d='M12 1C6.5 1 3 5.5 3 10c0 6.5 9 13 9 13s9-6.5 9-13c0-4.5-3.5-9-9-9z'
        class='map-icon-bg-outline' fill='none' stroke-width='3'/>
  <!-- solid background -->
  <path d='M12 1C6.5 1 3 5.5 3 10c0 6.5 9 13 9 13s9-6.5 9-13c0-4.5-3.5-9-9-9z'
        class='map-icon-bg'/>
  <!-- thin white keyline -->
  <path d='M12 1C6.5 1 3 5.5 3 10c0 6.5 9 13 9 13s9-6.5 9-13c0-4.5-3.5-9-9-9z'
        fill='none' stroke='white' stroke-width='1.5'/>
  <g transform='translate(0, -2.5)'>
    <g class="map-icon-glyph" fill="currentColor" transform='translate(5.3999999999999995 18.6) scale(0.013750000000000002)'>
    <path d="M480-80q-61 0-125-22t-116-60q-52-38-85.5-89T120-360v-120l160 120-62 62q29 51 92 88t130 47v-357H320v-80h120v-47q-35-13-57.5-43.5T360-760q0-50 35-85t85-35q50 0 85 35t35 85q0 39-22.5 69.5T520-647v47h120v80H520v357q67-10 130-47t92-88l-62-62 160-120v120q0 58-33.5 109T721-162q-52 38-116 60T480-80Zm0-640q17 0 28.5-11.5T520-760q0-17-11.5-28.5T480-800q-17 0-28.5 11.5T440-760q0 17 11.5 28.5T480-720Z"/>
  </g>
  </g>
</svg>