<svg xmlns='http://www.w3.org/2000/svg'
             viewBox='-1 -1 26 26' class='map-icon' width='28' height='45'>
  <!-- coloured outer ring -->
  <path d='M12 1C6.5 1 3 5.5 3 10c0 6.5 9 13 9 13s9-6.5 9-13c0-4.5-3.5-9-9-9z'
        class='map-icon-bg-outline' fill='none' stroke-width='3'/>
  <!-- solid background -->
  <path d='M12 1C6.5 1 3 5.5 3 10c0 6.5 9 13 9 13s9-6.5 9-13c0-4.5-3.5-9-9-9z'
        class='map-icon-bg'/>
  <!-- thin white keyline -->
  <path d='M12 1C6.5 1 3 5.5 3 10c0 6.5 9 13 9 13s9-6.5 9-13c0-4.5-3.5-9-9-9z'
        fill='none' stroke='white' stroke-width='1.5'/>
  <g transform='translate(0, -2.5)'>
    <g class="map-icon-glyph" fill="currentColor" transform='translate(5.3999999999999995 18.6) scale(0.013750000000000002)'>
    <path d="M784-120 530-374l56-56 254 254-56 56Zm-546-28q-60-60-89-135t-29-153q0-78 29-152t89-134q60-60 134.5-89.5T525-841q78 0 152.5 29.5T812-722L238-148Zm8-122 54-54q-16-21-30.5-43T243-411q-12-22-21-44t-16-43q-11 59-1.5 118T246-270Zm112-110 222-224q-43-33-86.5-53.5t-81.5-28q-38-7.5-68.5-2.5T296-666q-17 18-22 48.5t2.5 69q7.5 38.5 28 81.5t53.5 87Zm278-280 56-54q-53-32-112-42t-118 2q22 7 44 16t44 20.5q22 11.5 43.5 26T636-660Z"/>
  </g>
  </g>
</svg>