<svg xmlns='http://www.w3.org/2000/svg'
             viewBox='-1 -1 26 26' class='map-icon' width='28' height='45'>
  <!-- coloured outer ring -->
  <path d='M12 1C6.5 1 3 5.5 3 10c0 6.5 9 13 9 13s9-6.5 9-13c0-4.5-3.5-9-9-9z'
        class='map-icon-bg-outline' fill='none' stroke-width='3'/>
  <!-- solid background -->
  <path d='M12 1C6.5 1 3 5.5 3 10c0 6.5 9 13 9 13s9-6.5 9-13c0-4.5-3.5-9-9-9z'
        class='map-icon-bg'/>
  <!-- thin white keyline -->
  <path d='M12 1C6.5 1 3 5.5 3 10c0 6.5 9 13 9 13s9-6.5 9-13c0-4.5-3.5-9-9-9z'
        fill='none' stroke='white' stroke-width='1.5'/>
  <g transform='translate(0, -2.5)'>
    <g class="map-icon-glyph" fill="currentColor" transform='translate(5.3999999999999995 18.6) scale(0.013750000000000002)'>
    <path d="M200-80q-83 0-141.5-58.5T0-280q0-83 58.5-141.5T200-480q83 0 141.5 58.5T400-280q0 83-58.5 141.5T200-80Zm0-80q50 0 85-35t35-85q0-50-35-85t-85-35q-50 0-85 35t-35 85q0 50 35 85t85 35Zm240-40v-200L312-512q-12-11-18-25.5t-6-30.5q0-16 6.5-30.5T312-624l112-112q12-12 27.5-18t32.5-6q17 0 32.5 6t27.5 18l76 76q28 28 64 44t76 16v80q-57 0-108.5-22T560-604l-32-32-96 96 88 92v248h-80Zm180-540q-33 0-56.5-23.5T540-820q0-33 23.5-56.5T620-900q33 0 56.5 23.5T700-820q0 33-23.5 56.5T620-740ZM760-80q-83 0-141.5-58.5T560-280q0-83 58.5-141.5T760-480q83 0 141.5 58.5T960-280q0 83-58.5 141.5T760-80Zm0-80q50 0 85-35t35-85q0-50-35-85t-85-35q-50 0-85 35t-35 85q0 50 35 85t85 35Z"/>
  </g>
  </g>
</svg>