<svg xmlns='http://www.w3.org/2000/svg'
             viewBox='-1 -1 26 26' class='map-icon'>
  <!-- coloured outer ring -->
  <path d='M12 1C6.5 1 3 5.5 3 10c0 6.5 9 13 9 13s9-6.5 9-13c0-4.5-3.5-9-9-9z'
        class='map-icon-bg-outline' fill='none' stroke-width='3'/>
  <!-- solid background -->
  <path d='M12 1C6.5 1 3 5.5 3 10c0 6.5 9 13 9 13s9-6.5 9-13c0-4.5-3.5-9-9-9z'
        class='map-icon-bg'/>
  <!-- thin white keyline -->
  <path d='M12 1C6.5 1 3 5.5 3 10c0 6.5 9 13 9 13s9-6.5 9-13c0-4.5-3.5-9-9-9z'
        fill='none' stroke='white' stroke-width='1.5'/>
  <g transform='translate(0, -2.5)'>
    <g class="map-icon-glyph" fill="currentColor" transform='translate(5.3999999999999995 18.6) scale(0.013750000000000002)'>
    <path d="m340-200 100-160h-60v-120L280-320h60v120ZM240-560h240v-200H240v200Zm0 360h240v-280H240v280Zm-80 80v-640q0-33 23.5-56.5T240-840h240q33 0 56.5 23.5T560-760v280h50q29 0 49.5 20.5T680-410v185q0 17 14 31t31 14q18 0 31.5-14t13.5-31v-375h-10q-17 0-28.5-11.5T720-640v-80h20v-60h40v60h40v-60h40v60h20v80q0 17-11.5 28.5T840-600h-10v375q0 42-30.5 73.5T725-120q-43 0-74-31.5T620-225v-185q0-5-2.5-7.5T610-420h-50v300H160Zm320-80H240h240Z"/>
  </g>
  </g>
</svg>