<svg xmlns='http://www.w3.org/2000/svg'
             viewBox='-1 -1 26 26' class='map-icon' width='28' height='45'>
  <!-- coloured outer ring -->
  <path d='M12 1C6.5 1 3 5.5 3 10c0 6.5 9 13 9 13s9-6.5 9-13c0-4.5-3.5-9-9-9z'
        class='map-icon-bg-outline' fill='none' stroke-width='3'/>
  <!-- solid background -->
  <path d='M12 1C6.5 1 3 5.5 3 10c0 6.5 9 13 9 13s9-6.5 9-13c0-4.5-3.5-9-9-9z'
        class='map-icon-bg'/>
  <!-- thin white keyline -->
  <path d='M12 1C6.5 1 3 5.5 3 10c0 6.5 9 13 9 13s9-6.5 9-13c0-4.5-3.5-9-9-9z'
        fill='none' stroke='white' stroke-width='1.5'/>
  <g transform='translate(0, -2.5)'>
    <g class="map-icon-glyph" fill="currentColor" transform='translate(5.3999999999999995 18.6) scale(0.013750000000000002)'>
    <path d="M160-120v-640q0-33 23.5-56.5T240-840h240q33 0 56.5 23.5T560-760v280h40q33 0 56.5 23.5T680-400v180q0 17 11.5 28.5T720-180q17 0 28.5-11.5T760-220v-288q-9 5-19 6.5t-21 1.5q-42 0-71-29t-29-71q0-32 17.5-57.5T684-694l-84-84 42-42 148 144q15 15 22.5 35t7.5 41v380q0 42-29 71t-71 29q-42 0-71-29t-29-71v-200h-60v300H160Zm80-440h240v-200H240v200Zm480 0q17 0 28.5-11.5T760-600q0-17-11.5-28.5T720-640q-17 0-28.5 11.5T680-600q0 17 11.5 28.5T720-560ZM240-200h240v-280H240v280Zm240 0H240h240Z"/>
  </g>
  </g>
</svg>