<svg xmlns='http://www.w3.org/2000/svg'
             viewBox='-1 -1 26 26' class='map-icon' width='28' height='45'>
  <!-- coloured outer ring -->
  <path d='M12 1C6.5 1 3 5.5 3 10c0 6.5 9 13 9 13s9-6.5 9-13c0-4.5-3.5-9-9-9z'
        class='map-icon-bg-outline' fill='none' stroke-width='3'/>
  <!-- solid background -->
  <path d='M12 1C6.5 1 3 5.5 3 10c0 6.5 9 13 9 13s9-6.5 9-13c0-4.5-3.5-9-9-9z'
        class='map-icon-bg'/>
  <!-- thin white keyline -->
  <path d='M12 1C6.5 1 3 5.5 3 10c0 6.5 9 13 9 13s9-6.5 9-13c0-4.5-3.5-9-9-9z'
        fill='none' stroke='white' stroke-width='1.5'/>
  <g transform='translate(0, -2.5)'>
    <g class="map-icon-glyph" fill="currentColor" transform='translate(5.3999999999999995 18.6) scale(0.013750000000000002)'>
    <path d="m280-40 123-622q6-29 27-43.5t44-14.5q23 0 42.5 10t31.5 30l40 64q18 29 46.5 52.5T700-529v-71h60v560h-60v-406q-48-11-89-35t-71-59l-24 120 84 80v300h-80v-240l-84-80-72 320h-84Zm17-395-85-16q-16-3-25-16.5t-6-30.5l30-157q6-32 34-50.5t60-12.5l46 9-54 274Zm243-305q-33 0-56.5-23.5T460-820q0-33 23.5-56.5T540-900q33 0 56.5 23.5T620-820q0 33-23.5 56.5T540-740Z"/>
  </g>
  </g>
</svg>