<svg xmlns='http://www.w3.org/2000/svg'
             viewBox='-1 -1 26 26' class='map-icon' width='28' height='45'>
  <!-- coloured outer ring -->
  <path d='M12 1C6.5 1 3 5.5 3 10c0 6.5 9 13 9 13s9-6.5 9-13c0-4.5-3.5-9-9-9z'
        class='map-icon-bg-outline' fill='none' stroke-width='3'/>
  <!-- solid background -->
  <path d='M12 1C6.5 1 3 5.5 3 10c0 6.5 9 13 9 13s9-6.5 9-13c0-4.5-3.5-9-9-9z'
        class='map-icon-bg'/>
  <!-- thin white keyline -->
  <path d='M12 1C6.5 1 3 5.5 3 10c0 6.5 9 13 9 13s9-6.5 9-13c0-4.5-3.5-9-9-9z'
        fill='none' stroke='white' stroke-width='1.5'/>
  <g transform='translate(0, -2.5)'>
    <g class="map-icon-glyph" fill="currentColor" transform='translate(5.3999999999999995 18.6) scale(0.013750000000000002)'>
    <path d="M80-40v-80h40q32 0 62-10t58-30q28 20 58 30t62 10q32 0 62.5-10t57.5-30q28 20 58 30t62 10q32 0 62.5-10t57.5-30q27 20 57.5 30t62.5 10h40v80h-40q-31 0-61-7.5T720-70q-29 15-59 22.5T600-40q-31 0-61-7.5T480-70q-29 15-59 22.5T360-40q-31 0-61-7.5T240-70q-29 15-59 22.5T120-40H80Zm280-160q-36 0-67-17t-53-43q-17 18-37.5 32.5T157-205q-41-11-83-26T0-260q54-23 132-47t153-36l54-167q11-34 41.5-45t57.5 3l102 52 113-60 66-148-20-53 53-119 128 57-53 119-53 20-148 334q93 11 186.5 38T960-260q-29 13-73.5 28.5T803-205q-25-7-45.5-21.5T720-260q-22 26-53 43t-67 17q-36 0-67-17t-53-43q-22 26-53 43t-67 17Zm203-157 38-85-61 32-70-36-28 86h38q21 0 42 .5t41 2.5Zm-83-223q-33 0-56.5-23.5T400-660q0-33 23.5-56.5T480-740q33 0 56.5 23.5T560-660q0 33-23.5 56.5T480-580Z"/>
  </g>
  </g>
</svg>