<svg xmlns='http://www.w3.org/2000/svg'
             viewBox='-1 -1 26 26' class='map-icon'>
  <!-- coloured outer ring -->
  <path d='M12 1C6.5 1 3 5.5 3 10c0 6.5 9 13 9 13s9-6.5 9-13c0-4.5-3.5-9-9-9z'
        class='map-icon-bg-outline' fill='none' stroke-width='3'/>
  <!-- solid background -->
  <path d='M12 1C6.5 1 3 5.5 3 10c0 6.5 9 13 9 13s9-6.5 9-13c0-4.5-3.5-9-9-9z'
        class='map-icon-bg'/>
  <!-- thin white keyline -->
  <path d='M12 1C6.5 1 3 5.5 3 10c0 6.5 9 13 9 13s9-6.5 9-13c0-4.5-3.5-9-9-9z'
        fill='none' stroke='white' stroke-width='1.5'/>
  <g transform='translate(0, -2.5)'>
    <g class="map-icon-glyph" fill="currentColor" transform='translate(5.3999999999999995 18.6) scale(0.013750000000000002)'>
    <path d="M280-120q-33 0-56.5-23.5T200-200v-440q0-33 23.5-56.5T280-720h80v-80q0-33 23.5-56.5T440-880h80q33 0 56.5 23.5T600-800v80h80q33 0 56.5 23.5T760-640v440q0 33-23.5 56.5T680-120q0 17-11.5 28.5T640-80q-17 0-28.5-11.5T600-120H360q0 17-11.5 28.5T320-80q-17 0-28.5-11.5T280-120Zm0-80h400v-440H280v440Zm80-40h80v-360h-80v360Zm160 0h80v-360h-80v360Zm-80-480h80v-80h-80v80Zm40 300Z"/>
  </g>
  </g>
</svg>