<svg xmlns='http://www.w3.org/2000/svg'
             viewBox='-1 -1 26 26' class='map-icon' width='28' height='45'>
  <!-- coloured outer ring -->
  <path d='M12 1C6.5 1 3 5.5 3 10c0 6.5 9 13 9 13s9-6.5 9-13c0-4.5-3.5-9-9-9z'
        class='map-icon-bg-outline' fill='none' stroke-width='3'/>
  <!-- solid background -->
  <path d='M12 1C6.5 1 3 5.5 3 10c0 6.5 9 13 9 13s9-6.5 9-13c0-4.5-3.5-9-9-9z'
        class='map-icon-bg'/>
  <!-- thin white keyline -->
  <path d='M12 1C6.5 1 3 5.5 3 10c0 6.5 9 13 9 13s9-6.5 9-13c0-4.5-3.5-9-9-9z'
        fill='none' stroke='white' stroke-width='1.5'/>
  <g transform='translate(0, -2.5)'>
    <g class="map-icon-glyph" fill="currentColor" transform='translate(5.3999999999999995 18.6) scale(0.013750000000000002)'>
    <path d="m600-120-240-84-186 72q-20 8-37-4.5T120-170v-560q0-13 7.5-23t20.5-15l212-72 240 84 186-72q20-8 37 4.5t17 33.5v560q0 13-7.5 23T812-192l-212 72Zm-40-98v-468l-160-56v468l160 56Zm80 0 120-40v-474l-120 46v468Zm-440-10 120-46v-468l-120 40v474Zm440-458v468-468Zm-320-56v468-468Z"/>
  </g>
  </g>
</svg>