<svg xmlns='http://www.w3.org/2000/svg'
             viewBox='-1 -1 26 26' class='map-icon' width='28' height='45'>
  <!-- coloured outer ring -->
  <path d='M12 1C6.5 1 3 5.5 3 10c0 6.5 9 13 9 13s9-6.5 9-13c0-4.5-3.5-9-9-9z'
        class='map-icon-bg-outline' fill='none' stroke-width='3'/>
  <!-- solid background -->
  <path d='M12 1C6.5 1 3 5.5 3 10c0 6.5 9 13 9 13s9-6.5 9-13c0-4.5-3.5-9-9-9z'
        class='map-icon-bg'/>
  <!-- thin white keyline -->
  <path d='M12 1C6.5 1 3 5.5 3 10c0 6.5 9 13 9 13s9-6.5 9-13c0-4.5-3.5-9-9-9z'
        fill='none' stroke='white' stroke-width='1.5'/>
  <g transform='translate(0, -2.5)'>
    <g class="map-icon-glyph" fill="currentColor" transform='translate(5.3999999999999995 18.6) scale(0.013750000000000002)'>
    <path d="M790-56 414-434q-47 11-87.5 33T254-346l-84-86q32-32 69-56t79-42l-90-90q-41 21-76.5 46.5T84-516L0-602q32-32 66.5-57.5T140-708l-84-84 56-56 736 736-58 56Zm-310-64q-42 0-71-29.5T380-220q0-42 29-71t71-29q42 0 71 29t29 71q0 41-29 70.5T480-120Zm236-238-29-29-29-29-144-144q81 8 151.5 41T790-432l-74 74Zm160-158q-77-77-178.5-120.5T480-680q-21 0-40.5 1.5T400-674L298-776q44-12 89.5-18t92.5-6q142 0 265 53t215 145l-84 86Z"/>
  </g>
  </g>
</svg>