<svg xmlns='http://www.w3.org/2000/svg'
             viewBox='-1 -1 26 26' class='map-icon'>
  <!-- coloured outer ring -->
  <path d='M12 1C6.5 1 3 5.5 3 10c0 6.5 9 13 9 13s9-6.5 9-13c0-4.5-3.5-9-9-9z'
        class='map-icon-bg-outline' fill='none' stroke-width='3'/>
  <!-- solid background -->
  <path d='M12 1C6.5 1 3 5.5 3 10c0 6.5 9 13 9 13s9-6.5 9-13c0-4.5-3.5-9-9-9z'
        class='map-icon-bg'/>
  <!-- thin white keyline -->
  <path d='M12 1C6.5 1 3 5.5 3 10c0 6.5 9 13 9 13s9-6.5 9-13c0-4.5-3.5-9-9-9z'
        fill='none' stroke='white' stroke-width='1.5'/>
  <g transform='translate(0, -2.5)'>
    <g class="map-icon-glyph" fill="currentColor" transform='translate(5.3999999999999995 18.6) scale(0.013750000000000002)'>
    <path d="M440-120q-100 0-170-70t-70-170v-240l200 200-56 57-64-64v47q0 66 47 113t113 47q66 0 113-47t47-113v-127q-36-14-58-44.5T520-600q0-38 22-68.5t58-44.5v-167h80v167q36 14 58 44.5t22 68.5q0 38-22 69t-58 44v127q0 100-70 170t-170 70Zm200-440q17 0 28.5-11.5T680-600q0-17-11.5-28.5T640-640q-17 0-28.5 11.5T600-600q0 17 11.5 28.5T640-560Zm0-40Z"/>
  </g>
  </g>
</svg>