<svg xmlns='http://www.w3.org/2000/svg'
             viewBox='-1 -1 26 26' class='map-icon' width='28' height='45'>
  <!-- coloured outer ring -->
  <path d='M12 1C6.5 1 3 5.5 3 10c0 6.5 9 13 9 13s9-6.5 9-13c0-4.5-3.5-9-9-9z'
        class='map-icon-bg-outline' fill='none' stroke-width='3'/>
  <!-- solid background -->
  <path d='M12 1C6.5 1 3 5.5 3 10c0 6.5 9 13 9 13s9-6.5 9-13c0-4.5-3.5-9-9-9z'
        class='map-icon-bg'/>
  <!-- thin white keyline -->
  <path d='M12 1C6.5 1 3 5.5 3 10c0 6.5 9 13 9 13s9-6.5 9-13c0-4.5-3.5-9-9-9z'
        fill='none' stroke='white' stroke-width='1.5'/>
  <g transform='translate(0, -2.5)'>
    <g class="map-icon-glyph" fill="currentColor" transform='translate(5.3999999999999995 18.6) scale(0.013750000000000002)'>
    <path d="M520-40v-240l-84-80-40 176-276-56 16-80 192 40 64-324-72 28v136h-80v-188l158-68q35-15 51.5-19.5T480-720q21 0 39 11t29 29l40 64q26 42 70.5 69T760-520v80q-66 0-123.5-27.5T540-540l-24 120 84 80v300h-80Zm20-700q-33 0-56.5-23.5T460-820q0-33 23.5-56.5T540-900q33 0 56.5 23.5T620-820q0 33-23.5 56.5T540-740Z"/>
  </g>
  </g>
</svg>