<svg xmlns='http://www.w3.org/2000/svg'
             viewBox='-1 -1 26 26' class='map-icon' width='28' height='45'>
  <!-- coloured outer ring -->
  <path d='M12 1C6.5 1 3 5.5 3 10c0 6.5 9 13 9 13s9-6.5 9-13c0-4.5-3.5-9-9-9z'
        class='map-icon-bg-outline' fill='none' stroke-width='3'/>
  <!-- solid background -->
  <path d='M12 1C6.5 1 3 5.5 3 10c0 6.5 9 13 9 13s9-6.5 9-13c0-4.5-3.5-9-9-9z'
        class='map-icon-bg'/>
  <!-- thin white keyline -->
  <path d='M12 1C6.5 1 3 5.5 3 10c0 6.5 9 13 9 13s9-6.5 9-13c0-4.5-3.5-9-9-9z'
        fill='none' stroke='white' stroke-width='1.5'/>
  <g transform='translate(0, -2.5)'>
    <g class="map-icon-glyph" fill="currentColor" transform='translate(5.3999999999999995 18.6) scale(0.013750000000000002)'>
    <path d="m120-420 320-460v460H120Zm153-80h87v-125l-87 125Zm227 80q12-28 26-98t14-142q0-72-13.5-148T500-920q61 18 121.5 67t109 117q48.5 68 79 149.5T840-420H500Zm104-80h148q-17-77-55.5-141T615-750q2 21 3.5 43.5T620-660q0 47-4.5 87T604-500ZM360-200q-36 0-67-17t-53-43q-14 15-30.5 28T173-211q-35-26-59.5-64.5T80-360h800q-9 46-33.5 84.5T787-211q-20-8-36.5-21T720-260q-23 26-53.5 43T600-200q-36 0-67-17t-53-43q-22 26-53 43t-67 17ZM80-40v-80h40q32 0 62.5-10t57.5-30q27 20 57.5 29.5T360-121q32 0 62-9.5t58-29.5q27 20 57.5 29.5T600-121q32 0 62-9.5t58-29.5q28 20 58 30t62 10h40v80h-40q-31 0-61-7.5T720-70q-29 15-59 22.5T600-40q-31 0-61-7.5T480-70q-29 15-59 22.5T360-40q-31 0-61-7.5T240-70q-29 15-59 22.5T120-40H80Zm280-460Zm244 0Z"/>
  </g>
  </g>
</svg>