<svg xmlns='http://www.w3.org/2000/svg'
             viewBox='-1 -1 26 26' class='map-icon'>
  <!-- coloured outer ring -->
  <path d='M12 1C6.5 1 3 5.5 3 10c0 6.5 9 13 9 13s9-6.5 9-13c0-4.5-3.5-9-9-9z'
        class='map-icon-bg-outline' fill='none' stroke-width='3'/>
  <!-- solid background -->
  <path d='M12 1C6.5 1 3 5.5 3 10c0 6.5 9 13 9 13s9-6.5 9-13c0-4.5-3.5-9-9-9z'
        class='map-icon-bg'/>
  <!-- thin white keyline -->
  <path d='M12 1C6.5 1 3 5.5 3 10c0 6.5 9 13 9 13s9-6.5 9-13c0-4.5-3.5-9-9-9z'
        fill='none' stroke='white' stroke-width='1.5'/>
  <g transform='translate(0, -2.5)'>
    <g class="map-icon-glyph" fill="currentColor" transform='translate(5.3999999999999995 18.6) scale(0.013750000000000002)'>
    <path d="M160-40 96-88l114-152 31-178q3-24 19-42.5t41-24.5l379-115 80-160 120-120 40 40-100 116-60 184-200 140-234 74-46 126L160-40Zm-40-320q-33 0-56.5-23.5T40-440q0-33 23.5-56.5T120-520q33 0 56.5 23.5T200-440q0 33-23.5 56.5T120-360Zm236-196q-24 7-45.5-5.5T282-598q-7-24 5.5-46t36.5-28l182-48 31 116-181 48Z"/>
  </g>
  </g>
</svg>