<svg xmlns='http://www.w3.org/2000/svg'
             viewBox='-1 -1 26 26' class='map-icon'>
  <!-- coloured outer ring -->
  <path d='M12 1C6.5 1 3 5.5 3 10c0 6.5 9 13 9 13s9-6.5 9-13c0-4.5-3.5-9-9-9z'
        class='map-icon-bg-outline' fill='none' stroke-width='3'/>
  <!-- solid background -->
  <path d='M12 1C6.5 1 3 5.5 3 10c0 6.5 9 13 9 13s9-6.5 9-13c0-4.5-3.5-9-9-9z'
        class='map-icon-bg'/>
  <!-- thin white keyline -->
  <path d='M12 1C6.5 1 3 5.5 3 10c0 6.5 9 13 9 13s9-6.5 9-13c0-4.5-3.5-9-9-9z'
        fill='none' stroke='white' stroke-width='1.5'/>
  <g transform='translate(0, -2.5)'>
    <g class="map-icon-glyph" fill="currentColor" transform='translate(5.3999999999999995 18.6) scale(0.013750000000000002)'>
    <path d="M80-240v-80q38 0 56.5-20t77.5-20q59 0 77.5 20t54.5 20q38 0 56.5-20t77.5-20q57 0 77.5 20t56.5 20q38 0 55.5-20t76.5-20q59 0 77.5 20t56.5 20v80q-57 0-77.5-20T746-280q-36 0-54.5 20T614-240q-57 0-77.5-20T480-280q-38 0-56.5 20T346-240q-59 0-76.5-20T214-280q-38 0-56.5 20T80-240Zm0-160v-80q38 0 56.5-20t77.5-20q57 0 76.5 20t55.5 20q38 0 56.5-20t77.5-20q57 0 77 20t55 20q38 0 56.5-20t77.5-20q57 0 77.5 20t56.5 20v80q-59 0-78.5-20T746-440q-36 0-54.5 20T614-400q-57 0-77.5-20T480-440q-38 0-55.5 20T348-400q-59 0-78.5-20T214-440q-36 0-56.5 20T80-400Zm0-160v-80q38 0 56.5-20t77.5-20q57 0 76.5 20t55.5 20q38 0 56.5-20t77.5-20q57 0 77 20t55 20q38 0 56.5-20t77.5-20q57 0 77.5 20t56.5 20v80q-59 0-78.5-20T746-600q-36 0-54.5 20T614-560q-57 0-77.5-20T480-600q-38 0-55.5 20T348-560q-59 0-78.5-20T214-600q-36 0-56.5 20T80-560Z"/>
  </g>
  </g>
</svg>