<svg xmlns='http://www.w3.org/2000/svg'
             viewBox='-1 -1 26 26' class='map-icon' width='28' height='45'>
  <!-- coloured outer ring -->
  <path d='M12 1C6.5 1 3 5.5 3 10c0 6.5 9 13 9 13s9-6.5 9-13c0-4.5-3.5-9-9-9z'
        class='map-icon-bg-outline' fill='none' stroke-width='3'/>
  <!-- solid background -->
  <path d='M12 1C6.5 1 3 5.5 3 10c0 6.5 9 13 9 13s9-6.5 9-13c0-4.5-3.5-9-9-9z'
        class='map-icon-bg'/>
  <!-- thin white keyline -->
  <path d='M12 1C6.5 1 3 5.5 3 10c0 6.5 9 13 9 13s9-6.5 9-13c0-4.5-3.5-9-9-9z'
        fill='none' stroke='white' stroke-width='1.5'/>
  <g transform='translate(0, -2.5)'>
    <g class="map-icon-glyph" fill="currentColor" transform='translate(5.3999999999999995 18.6) scale(0.013750000000000002)'>
    <path d="M80-200v-120h600v120H80Zm640 0v-120h60v120h-60Zm100 0v-120h60v120h-60ZM720-360v-52q0-39-23-59.5T642-492h-62q-56 0-95-39t-39-95q0-56 39-95t95-39v60q-30 0-52 21t-22 53q0 32 22 53t52 21h62q56 0 97 36t41 90v66h-60Zm100 0v-90q0-66-46-114t-114-48v-60q30 0 52-22t22-52q0-30-22-52t-52-22v-60q56 0 95 39t39 95q0 29-11 52.5T754-650q56 26 91 80t35 120v90h-60Z"/>
  </g>
  </g>
</svg>