<svg xmlns='http://www.w3.org/2000/svg'
             viewBox='-1 -1 26 26' class='map-icon' width='28' height='45'>
  <!-- coloured outer ring -->
  <path d='M12 1C6.5 1 3 5.5 3 10c0 6.5 9 13 9 13s9-6.5 9-13c0-4.5-3.5-9-9-9z'
        class='map-icon-bg-outline' fill='none' stroke-width='3'/>
  <!-- solid background -->
  <path d='M12 1C6.5 1 3 5.5 3 10c0 6.5 9 13 9 13s9-6.5 9-13c0-4.5-3.5-9-9-9z'
        class='map-icon-bg'/>
  <!-- thin white keyline -->
  <path d='M12 1C6.5 1 3 5.5 3 10c0 6.5 9 13 9 13s9-6.5 9-13c0-4.5-3.5-9-9-9z'
        fill='none' stroke='white' stroke-width='1.5'/>
  <g transform='translate(0, -2.5)'>
    <g class="map-icon-glyph" fill="currentColor" transform='translate(5.3999999999999995 18.6) scale(0.013750000000000002)'>
    <path d="M420-280q-33 0-56.5-23.5T340-360v-240q0-33 23.5-56.5T420-680h120q33 0 56.5 23.5T620-600v240q0 33-23.5 56.5T540-280H420Zm-380 0v-80h160v-80h-80q-33 0-56.5-23.5T40-520v-80q0-33 23.5-56.5T120-680h160v80H120v80h80q33 0 56.5 23.5T280-440v80q0 33-23.5 56.5T200-280H40Zm640 0v-80h160v-80h-80q-33 0-56.5-23.5T680-520v-80q0-33 23.5-56.5T760-680h160v80H760v80h80q33 0 56.5 23.5T920-440v80q0 33-23.5 56.5T840-280H680Zm-260-80h120v-240H420v240Z"/>
  </g>
  </g>
</svg>