<svg xmlns='http://www.w3.org/2000/svg'
             viewBox='-1 -1 26 26' class='map-icon'>
  <!-- coloured outer ring -->
  <path d='M12 1C6.5 1 3 5.5 3 10c0 6.5 9 13 9 13s9-6.5 9-13c0-4.5-3.5-9-9-9z'
        class='map-icon-bg-outline' fill='none' stroke-width='3'/>
  <!-- solid background -->
  <path d='M12 1C6.5 1 3 5.5 3 10c0 6.5 9 13 9 13s9-6.5 9-13c0-4.5-3.5-9-9-9z'
        class='map-icon-bg'/>
  <!-- thin white keyline -->
  <path d='M12 1C6.5 1 3 5.5 3 10c0 6.5 9 13 9 13s9-6.5 9-13c0-4.5-3.5-9-9-9z'
        fill='none' stroke='white' stroke-width='1.5'/>
  <g transform='translate(0, -2.5)'>
    <g class="map-icon-glyph" fill="currentColor" transform='translate(5.3999999999999995 18.6) scale(0.013750000000000002)'>
    <path d="M80-80v-526q0-85 44-147.5T248-848q54-21 115-26.5t117-5.5q56 0 117 5.5T712-848q80 32 124 94.5T880-606v526H80Zm284-80h230l-60-60H424l-60 60Zm-64-280h360v-160H300v160Zm320 140q17 0 28.5-11.5T660-340q0-17-11.5-28.5T620-380q-17 0-28.5 11.5T580-340q0 17 11.5 28.5T620-300Zm-280 0q17 0 28.5-11.5T380-340q0-17-11.5-28.5T340-380q-17 0-28.5 11.5T300-340q0 17 11.5 28.5T340-300ZM160-160h140v-20l42-42q-44-6-73-39.5T240-340v-260q0-78 74.5-99T480-720q100 0 170 21t70 99v260q0 45-29 78.5T618-222l42 42v20h140v-446q0-60-29.5-102.5T682-774q-44-17-97.5-21.5T480-800q-51 0-104.5 4.5T278-774q-59 23-88.5 65.5T160-606v446Zm0 0h640-640Z"/>
  </g>
  </g>
</svg>