<svg xmlns='http://www.w3.org/2000/svg'
             viewBox='-1 -1 26 26' class='map-icon' width='28' height='45'>
  <!-- coloured outer ring -->
  <path d='M12 1C6.5 1 3 5.5 3 10c0 6.5 9 13 9 13s9-6.5 9-13c0-4.5-3.5-9-9-9z'
        class='map-icon-bg-outline' fill='none' stroke-width='3'/>
  <!-- solid background -->
  <path d='M12 1C6.5 1 3 5.5 3 10c0 6.5 9 13 9 13s9-6.5 9-13c0-4.5-3.5-9-9-9z'
        class='map-icon-bg'/>
  <!-- thin white keyline -->
  <path d='M12 1C6.5 1 3 5.5 3 10c0 6.5 9 13 9 13s9-6.5 9-13c0-4.5-3.5-9-9-9z'
        fill='none' stroke='white' stroke-width='1.5'/>
  <g transform='translate(0, -2.5)'>
    <g class="map-icon-glyph" fill="currentColor" transform='translate(5.3999999999999995 18.6) scale(0.013750000000000002)'>
    <path d="M80-120v-80q38 0 57-20t75-20q56 0 77 20t57 20q36 0 57-20t77-20q56 0 77 20t57 20q36 0 57-20t77-20q56 0 75 20t57 20v80q-59 0-77.5-20T748-160q-36 0-57 20t-77 20q-56 0-77-20t-57-20q-36 0-57 20t-77 20q-56 0-77-20t-57-20q-36 0-54.5 20T80-120Zm0-180v-80q38 0 57-20t75-20q56 0 77.5 20t56.5 20q36 0 57-20t77-20q56 0 77 20t57 20q36 0 57-20t77-20q56 0 75 20t57 20v80q-59 0-77.5-20T748-340q-36 0-55.5 20T614-300q-57 0-77.5-20T480-340q-38 0-56.5 20T346-300q-59 0-78.5-20T212-340q-36 0-54.5 20T80-300Zm196-204 133-133-40-40q-33-33-70-48t-91-15v-100q75 0 124 16.5t96 63.5l256 256q-17 11-33 17.5t-37 6.5q-36 0-57-20t-77-20q-56 0-77 20t-57 20q-21 0-37-6.5T276-504Zm392-336q42 0 71 29.5t29 70.5q0 42-29 71t-71 29q-42 0-71-29t-29-71q0-41 29-70.5t71-29.5Z"/>
  </g>
  </g>
</svg>