<svg xmlns='http://www.w3.org/2000/svg'
             viewBox='-1 -1 26 26' class='map-icon' width='28' height='45'>
  <!-- coloured outer ring -->
  <path d='M12 1C6.5 1 3 5.5 3 10c0 6.5 9 13 9 13s9-6.5 9-13c0-4.5-3.5-9-9-9z'
        class='map-icon-bg-outline' fill='none' stroke-width='3'/>
  <!-- solid background -->
  <path d='M12 1C6.5 1 3 5.5 3 10c0 6.5 9 13 9 13s9-6.5 9-13c0-4.5-3.5-9-9-9z'
        class='map-icon-bg'/>
  <!-- thin white keyline -->
  <path d='M12 1C6.5 1 3 5.5 3 10c0 6.5 9 13 9 13s9-6.5 9-13c0-4.5-3.5-9-9-9z'
        fill='none' stroke='white' stroke-width='1.5'/>
  <g transform='translate(0, -2.5)'>
    <g class="map-icon-glyph" fill="currentColor" transform='translate(5.3999999999999995 18.6) scale(0.013750000000000002)'>
    <path d="M160-340v-380q0-53 27.5-84.5t72.5-48q45-16.5 102.5-22T480-880q66 0 124.5 5.5t102 22q43.5 16.5 68.5 48t25 84.5v380q0 59-40.5 99.5T660-200l60 60v20h-80l-80-80H400l-80 80h-80v-20l60-60q-59 0-99.5-40.5T160-340Zm320-460q-106 0-155 12.5T258-760h448q-15-17-64.5-28.5T480-800ZM240-560h200v-120H240v120Zm420 80H240h480-60Zm-140-80h200v-120H520v120ZM340-320q26 0 43-17t17-43q0-26-17-43t-43-17q-26 0-43 17t-17 43q0 26 17 43t43 17Zm280 0q26 0 43-17t17-43q0-26-17-43t-43-17q-26 0-43 17t-17 43q0 26 17 43t43 17Zm-320 40h360q26 0 43-17t17-43v-140H240v140q0 26 17 43t43 17Zm180-480h226-448 222Z"/>
  </g>
  </g>
</svg>