<svg xmlns='http://www.w3.org/2000/svg'
             viewBox='-1 -1 26 26' class='map-icon'>
  <!-- coloured outer ring -->
  <path d='M12 1C6.5 1 3 5.5 3 10c0 6.5 9 13 9 13s9-6.5 9-13c0-4.5-3.5-9-9-9z'
        class='map-icon-bg-outline' fill='none' stroke-width='3'/>
  <!-- solid background -->
  <path d='M12 1C6.5 1 3 5.5 3 10c0 6.5 9 13 9 13s9-6.5 9-13c0-4.5-3.5-9-9-9z'
        class='map-icon-bg'/>
  <!-- thin white keyline -->
  <path d='M12 1C6.5 1 3 5.5 3 10c0 6.5 9 13 9 13s9-6.5 9-13c0-4.5-3.5-9-9-9z'
        fill='none' stroke='white' stroke-width='1.5'/>
  <g transform='translate(0, -2.5)'>
    <g class="map-icon-glyph" fill="currentColor" transform='translate(5.3999999999999995 18.6) scale(0.013750000000000002)'>
    <path d="M444-600q-55 0-108 15.5T238-538l42 378h400l44-400h-28q-38 0-69-5.5T542-587q-23-7-48-10t-50-3Zm-216-25q51-27 105.5-41T445-680q30 0 59.5 4t58.5 12q50 14 76.5 19t56.5 5h37l17-160H210l18 175Zm51 545q-31 0-53.5-20T200-151l-80-729h720l-80 729q-3 31-25.5 51T681-80H279Zm165-80h236-400 164Z"/>
  </g>
  </g>
</svg>