<svg xmlns='http://www.w3.org/2000/svg'
             viewBox='-1 -1 26 26' class='map-icon' width='28' height='45'>
  <!-- coloured outer ring -->
  <path d='M12 1C6.5 1 3 5.5 3 10c0 6.5 9 13 9 13s9-6.5 9-13c0-4.5-3.5-9-9-9z'
        class='map-icon-bg-outline' fill='none' stroke-width='3'/>
  <!-- solid background -->
  <path d='M12 1C6.5 1 3 5.5 3 10c0 6.5 9 13 9 13s9-6.5 9-13c0-4.5-3.5-9-9-9z'
        class='map-icon-bg'/>
  <!-- thin white keyline -->
  <path d='M12 1C6.5 1 3 5.5 3 10c0 6.5 9 13 9 13s9-6.5 9-13c0-4.5-3.5-9-9-9z'
        fill='none' stroke='white' stroke-width='1.5'/>
  <g transform='translate(0, -2.5)'>
    <g class="map-icon-glyph" fill="currentColor" transform='translate(5.3999999999999995 18.6) scale(0.013750000000000002)'>
    <path d="M220-80v-300h-60v-220q0-33 23.5-56.5T240-680h120q33 0 56.5 23.5T440-600v220h-60v300H220Zm80-640q-33 0-56.5-23.5T220-800q0-33 23.5-56.5T300-880q33 0 56.5 23.5T380-800q0 33-23.5 56.5T300-720ZM600-80v-240H480l102-306q8-26 29.5-40t48.5-14q27 0 48.5 14t29.5 40l102 306H720v240H600Zm60-640q-33 0-56.5-23.5T580-800q0-33 23.5-56.5T660-880q33 0 56.5 23.5T740-800q0 33-23.5 56.5T660-720Z"/>
  </g>
  </g>
</svg>