<svg xmlns='http://www.w3.org/2000/svg'
             viewBox='-1 -1 26 26' class='map-icon' width='28' height='45'>
  <!-- coloured outer ring -->
  <path d='M12 1C6.5 1 3 5.5 3 10c0 6.5 9 13 9 13s9-6.5 9-13c0-4.5-3.5-9-9-9z'
        class='map-icon-bg-outline' fill='none' stroke-width='3'/>
  <!-- solid background -->
  <path d='M12 1C6.5 1 3 5.5 3 10c0 6.5 9 13 9 13s9-6.5 9-13c0-4.5-3.5-9-9-9z'
        class='map-icon-bg'/>
  <!-- thin white keyline -->
  <path d='M12 1C6.5 1 3 5.5 3 10c0 6.5 9 13 9 13s9-6.5 9-13c0-4.5-3.5-9-9-9z'
        fill='none' stroke='white' stroke-width='1.5'/>
  <g transform='translate(0, -2.5)'>
    <g class="map-icon-glyph" fill="currentColor" transform='translate(5.3999999999999995 18.6) scale(0.013750000000000002)'>
    <path d="M480-720q-33 0-56.5-23.5T400-800q0-33 23.5-56.5T480-880q33 0 56.5 23.5T560-800q0 33-23.5 56.5T480-720ZM680-80v-200H480q-33 0-56.5-23.5T400-360v-240q0-33 23.5-56.5T480-680q24 0 41.5 10.5T559-636q55 66 99.5 90.5T760-520v80q-53 0-107-23t-93-55v138h120q33 0 56.5 23.5T760-300v220h-80Zm-280 0q-83 0-141.5-58.5T200-280q0-72 45.5-127T360-476v82q-35 14-57.5 44.5T280-280q0 50 35 85t85 35q39 0 69.5-22.5T514-240h82q-14 69-69 114.5T400-80Z"/>
  </g>
  </g>
</svg>