<svg xmlns='http://www.w3.org/2000/svg'
             viewBox='-1 -1 26 35.5' class='map-icon' width='28' height='45'>
  <g transform='translate(0,9.5)'>
    <!-- coloured outer ring -->
    <circle cx='12' cy='12' r='11'
            class='map-icon-bg-outline' fill='none' stroke-width='3'/>
    <!-- solid background disc -->
    <circle cx='12' cy='12' r='11' class='map-icon-bg'/>
    <!-- thin white keyline -->
    <circle cx='12' cy='12' r='10'
            fill='none' stroke='white' stroke-width='1.5'/>
    <g class="map-icon-glyph" fill="currentColor" transform='translate(4.800000000000001 19.2) scale(0.015)'>
    <path d="M640-320q50 0 85 35t35 85q0 50-35 85t-85 35q-38 0-68.5-22T528-160H274l-40 62q-9 14-25.5 17.5T178-86q-14-9-17.5-25.5T166-142l158-242q-72-33-118-101.5T160-640h560q0 86-46 154.5T556-384l23 36q-21 10-34.5 20T515-300l-40-62q-8 2-17 2h-36q-9 0-17-2l-79 122h202q13-36 43.5-58t68.5-22Zm0 160q17 0 28.5-11.5T680-200q0-17-11.5-28.5T640-240q-17 0-28.5 11.5T600-200q0 17 11.5 28.5T640-160ZM440-440q60 0 109.5-33t74.5-87H256q26 54 75 87t109 33ZM336-680q5-29-1.5-49T307-775q-20-26-26.5-49.5T279-880h40q-5 29 1.5 48.5T348-786q21 26 27 49.5t1 56.5h-40Zm100 0q5-29-1-49t-27-46q-21-25-27.5-48.5T379-880h40q-5 29 1.5 48.5T448-786q20 25 26.5 48.5T476-680h-40Zm100 0q5-29-1-49t-27-46q-21-25-27.5-48.5T479-880h40q-5 29 1.5 48.5T548-786q20 25 26.5 48.5T576-680h-40Zm-96 240Z"/>
  </g>
  </g>
</svg>