<svg xmlns='http://www.w3.org/2000/svg'
             viewBox='-1 -1 26 26' class='map-icon'>
  <!-- coloured outer ring -->
  <circle cx='12' cy='12' r='11'
          class='map-icon-bg-outline' fill='none' stroke-width='3'/>
  <!-- solid background disc -->
  <circle cx='12' cy='12' r='11' class='map-icon-bg'/>
  <!-- thin white keyline -->
  <circle cx='12' cy='12' r='10'
          fill='none' stroke='white' stroke-width='1.5'/>
  <g class="map-icon-glyph" fill="currentColor" transform='translate(4.800000000000001 19.2) scale(0.015)'>
    <path d="M480-260q75 0 127.5-52.5T660-440q0-75-52.5-127.5T480-620q-75 0-127.5 52.5T300-440q0 75 52.5 127.5T480-260Zm0-80q-42 0-71-29t-29-71q0-42 29-71t71-29q42 0 71 29t29 71q0 42-29 71t-71 29ZM160-120q-33 0-56.5-23.5T80-200v-480q0-33 23.5-56.5T160-760h126l74-80h240l74 80h126q33 0 56.5 23.5T880-680v480q0 33-23.5 56.5T800-120H160Zm0-80h640v-480H638l-73-80H395l-73 80H160v480Zm320-240Z"/>
  </g>
</svg>