<svg xmlns='http://www.w3.org/2000/svg'
             viewBox='-1 -1 26 35.5' class='map-icon' width='28' height='45'>
  <g transform='translate(0,9.5)'>
    <!-- coloured outer ring -->
    <circle cx='12' cy='12' r='11'
            class='map-icon-bg-outline' fill='none' stroke-width='3'/>
    <!-- solid background disc -->
    <circle cx='12' cy='12' r='11' class='map-icon-bg'/>
    <!-- thin white keyline -->
    <circle cx='12' cy='12' r='10'
            fill='none' stroke='white' stroke-width='1.5'/>
    <g class="map-icon-glyph" fill="currentColor" transform='translate(4.800000000000001 19.2) scale(0.015)'>
    <path d="m280-40 123-622q6-29 27-43.5t44-14.5q23 0 42.5 10t31.5 30l40 64q18 29 46.5 52.5T700-529v-71h60v560h-60v-406q-48-11-89-35t-71-59l-24 120 84 80v300h-80v-240l-84-80-72 320h-84Zm17-395-85-16q-16-3-25-16.5t-6-30.5l30-157q6-32 34-50.5t60-12.5l46 9-54 274Zm243-305q-33 0-56.5-23.5T460-820q0-33 23.5-56.5T540-900q33 0 56.5 23.5T620-820q0 33-23.5 56.5T540-740Z"/>
  </g>
  </g>
</svg>