<svg xmlns='http://www.w3.org/2000/svg'
             viewBox='-1 -1 26 35.5' class='map-icon' width='28' height='45'>
  <g transform='translate(0,9.5)'>
    <!-- coloured outer ring -->
    <circle cx='12' cy='12' r='11'
            class='map-icon-bg-outline' fill='none' stroke-width='3'/>
    <!-- solid background disc -->
    <circle cx='12' cy='12' r='11' class='map-icon-bg'/>
    <!-- thin white keyline -->
    <circle cx='12' cy='12' r='10'
            fill='none' stroke='white' stroke-width='1.5'/>
    <g class="map-icon-glyph" fill="currentColor" transform='translate(4.800000000000001 19.2) scale(0.015)'>
    <path d="M480-120q-75 0-140.5-28.5t-114-77q-48.5-48.5-77-114T120-480q0-75 28.5-140.5t77-114q48.5-48.5 114-77T480-840q82 0 155.5 35T760-706v-94h80v240H600v-80h110q-41-56-101-88t-129-32q-117 0-198.5 81.5T200-480q0 117 81.5 198.5T480-200q105 0 183.5-68T756-440h82q-15 137-117.5 228.5T480-120Zm112-192L440-464v-216h80v184l128 128-56 56Z"/>
  </g>
  </g>
</svg>