<svg xmlns='http://www.w3.org/2000/svg'
             viewBox='-1 -1 26 26' class='map-icon'>
  <!-- coloured outer ring -->
  <circle cx='12' cy='12' r='11'
          class='map-icon-bg-outline' fill='none' stroke-width='3'/>
  <!-- solid background disc -->
  <circle cx='12' cy='12' r='11' class='map-icon-bg'/>
  <!-- thin white keyline -->
  <circle cx='12' cy='12' r='10'
          fill='none' stroke='white' stroke-width='1.5'/>
  <g class="map-icon-glyph" fill="currentColor" transform='translate(4.800000000000001 19.2) scale(0.015)'>
    <path d="M180-475q-42 0-71-29t-29-71q0-42 29-71t71-29q42 0 71 29t29 71q0 42-29 71t-71 29Zm180-160q-42 0-71-29t-29-71q0-42 29-71t71-29q42 0 71 29t29 71q0 42-29 71t-71 29Zm240 0q-42 0-71-29t-29-71q0-42 29-71t71-29q42 0 71 29t29 71q0 42-29 71t-71 29Zm180 160q-42 0-71-29t-29-71q0-42 29-71t71-29q42 0 71 29t29 71q0 42-29 71t-71 29ZM266-75q-45 0-75.5-34.5T160-191q0-52 35.5-91t70.5-77q29-31 50-67.5t50-68.5q22-26 51-43t63-17q34 0 63 16t51 42q28 32 49.5 69t50.5 69q35 38 70.5 77t35.5 91q0 47-30.5 81.5T694-75q-54 0-107-9t-107-9q-54 0-107 9t-107 9Z"/>
  </g>
</svg>