<svg xmlns='http://www.w3.org/2000/svg'
             viewBox='-1 -1 26 35.5' class='map-icon' width='28' height='45'>
  <g transform='translate(0,9.5)'>
    <!-- coloured outer ring -->
    <circle cx='12' cy='12' r='11'
            class='map-icon-bg-outline' fill='none' stroke-width='3'/>
    <!-- solid background disc -->
    <circle cx='12' cy='12' r='11' class='map-icon-bg'/>
    <!-- thin white keyline -->
    <circle cx='12' cy='12' r='10'
            fill='none' stroke='white' stroke-width='1.5'/>
    <g class="map-icon-glyph" fill="currentColor" transform='translate(4.800000000000001 19.2) scale(0.015)'>
    <path d="M440-120q-100 0-170-70t-70-170v-240l200 200-56 57-64-64v47q0 66 47 113t113 47q66 0 113-47t47-113v-127q-36-14-58-44.5T520-600q0-38 22-68.5t58-44.5v-167h80v167q36 14 58 44.5t22 68.5q0 38-22 69t-58 44v127q0 100-70 170t-170 70Zm200-440q17 0 28.5-11.5T680-600q0-17-11.5-28.5T640-640q-17 0-28.5 11.5T600-600q0 17 11.5 28.5T640-560Zm0-40Z"/>
  </g>
  </g>
</svg>