<svg xmlns='http://www.w3.org/2000/svg'
             viewBox='-1 -1 26 35.5' class='map-icon' width='28' height='45'>
  <g transform='translate(0,9.5)'>
    <!-- coloured outer ring -->
    <circle cx='12' cy='12' r='11'
            class='map-icon-bg-outline' fill='none' stroke-width='3'/>
    <!-- solid background disc -->
    <circle cx='12' cy='12' r='11' class='map-icon-bg'/>
    <!-- thin white keyline -->
    <circle cx='12' cy='12' r='10'
            fill='none' stroke='white' stroke-width='1.5'/>
    <g class="map-icon-glyph" fill="currentColor" transform='translate(4.800000000000001 19.2) scale(0.015)'>
    <path d="M420-280q-33 0-56.5-23.5T340-360v-240q0-33 23.5-56.5T420-680h120q33 0 56.5 23.5T620-600v240q0 33-23.5 56.5T540-280H420Zm-380 0v-80h160v-80h-80q-33 0-56.5-23.5T40-520v-80q0-33 23.5-56.5T120-680h160v80H120v80h80q33 0 56.5 23.5T280-440v80q0 33-23.5 56.5T200-280H40Zm640 0v-80h160v-80h-80q-33 0-56.5-23.5T680-520v-80q0-33 23.5-56.5T760-680h160v80H760v80h80q33 0 56.5 23.5T920-440v80q0 33-23.5 56.5T840-280H680Zm-260-80h120v-240H420v240Z"/>
  </g>
  </g>
</svg>