<svg xmlns='http://www.w3.org/2000/svg'
             viewBox='-1 -1 26 35.5' class='map-icon' width='28' height='45'>
  <g transform='translate(0,9.5)'>
    <!-- coloured outer ring -->
    <circle cx='12' cy='12' r='11'
            class='map-icon-bg-outline' fill='none' stroke-width='3'/>
    <!-- solid background disc -->
    <circle cx='12' cy='12' r='11' class='map-icon-bg'/>
    <!-- thin white keyline -->
    <circle cx='12' cy='12' r='10'
            fill='none' stroke='white' stroke-width='1.5'/>
    <g class="map-icon-glyph" fill="currentColor" transform='translate(4.800000000000001 19.2) scale(0.015)'>
    <path d="M480-720q-33 0-56.5-23.5T400-800q0-33 23.5-56.5T480-880q33 0 56.5 23.5T560-800q0 33-23.5 56.5T480-720ZM680-80v-200H480q-33 0-56.5-23.5T400-360v-240q0-33 23.5-56.5T480-680q24 0 41.5 10.5T559-636q55 66 99.5 90.5T760-520v80q-53 0-107-23t-93-55v138h120q33 0 56.5 23.5T760-300v220h-80Zm-280 0q-83 0-141.5-58.5T200-280q0-72 45.5-127T360-476v82q-35 14-57.5 44.5T280-280q0 50 35 85t85 35q39 0 69.5-22.5T514-240h82q-14 69-69 114.5T400-80Z"/>
  </g>
  </g>
</svg>