<svg xmlns='http://www.w3.org/2000/svg'
             viewBox='-1 -1 26 26' class='map-icon'>
  <!-- coloured outer ring -->
  <circle cx='12' cy='12' r='11'
          class='map-icon-bg-outline' fill='none' stroke-width='3'/>
  <!-- solid background disc -->
  <circle cx='12' cy='12' r='11' class='map-icon-bg'/>
  <!-- thin white keyline -->
  <circle cx='12' cy='12' r='10'
          fill='none' stroke='white' stroke-width='1.5'/>
  <g class="map-icon-glyph" fill="currentColor" transform='translate(4.800000000000001 19.2) scale(0.015)'>
    <path d="M480-120q-42 0-71-29t-29-71q0-42 29-71t71-29q42 0 71 29t29 71q0 42-29 71t-71 29ZM254-346l-84-86q59-59 138.5-93.5T480-560q92 0 171.5 35T790-430l-84 84q-44-44-102-69t-124-25q-66 0-124 25t-102 69ZM84-516 0-600q92-94 215-147t265-53q142 0 265 53t215 147l-84 84q-77-77-178.5-120.5T480-680q-116 0-217.5 43.5T84-516Z"/>
  </g>
</svg>