<?xml version="1.0" encoding="utf-8"?>
<!-- Uploaded to: SVG Repo, www.svgrepo.com, Generator: SVG Repo Mixer Tools -->
<svg fill="#000000" height="800px" width="800px" version="1.1" id="Layer_1" xmlns="http://www.w3.org/2000/svg" xmlns:xlink="http://www.w3.org/1999/xlink" 
	 viewBox="0 0 256 256" xml:space="preserve">
<g>
	<circle cx="127.7" cy="23.7" r="20.9"/>
	<path d="M212.4,5.5c-3.6-3.6-9.3-3.6-12.9,0L170,35l-10.2,10.2c-3.1,3-7.1,4.6-11.1,4.6h-21h0h-21.3c-6.7,0-13.3,2.5-18.4,7.6
		l-50.4,50.4c-3.6,3.6-3.6,9.3,0,12.9c3.6,3.6,9.3,3.6,12.9,0l44.1-44.1c0.5-0.5,1.1-0.8,1.8-0.8c1.4,0,2.6,1.2,2.6,2.6v23.5v44.3
		v93.9c0,7.2,5.8,13,13,13c7.2,0,13-5.8,13-13v-91.3c0-1.4,1.2-2.6,2.6-2.6c1.4,0,2.6,1.2,2.6,2.6v91.3c0,7.2,5.8,13,13,13
		s13-5.8,13-13v-93.9h0V74.4l26.5-26.5l29.5-29.5C215.9,14.9,215.9,9.1,212.4,5.5z"/>
</g>
</svg>