<?xml version="1.0" encoding="UTF-8" standalone="no"?>
<!DOCTYPE svg PUBLIC "-//W3C//DTD SVG 1.1//EN" "http://www.w3.org/Graphics/SVG/1.1/DTD/svg11.dtd">
<svg width="100%" height="100%" viewBox="0 0 800 800" version="1.1" xmlns="http://www.w3.org/2000/svg" xmlns:xlink="http://www.w3.org/1999/xlink" xml:space="preserve" xmlns:serif="http://www.serif.com/" style="fill-rule:evenodd;clip-rule:evenodd;stroke-linejoin:round;stroke-miterlimit:2;">
    <path d="M412.5,0C245.781,0 112.5,133.281 112.5,300C112.5,357.656 129.688,402.187 159.531,447.344L380.938,783.281C387.656,793.438 399.219,800 412.5,800C425.781,800 437.5,793.281 444.063,783.281L665.469,447.344C695.313,402.187 712.5,357.656 712.5,300C712.5,133.281 579.219,0 412.5,0ZM412.5,533.125C283.594,533.125 179.219,428.594 179.219,299.531C179.219,170.625 283.75,65.937 412.5,65.937C541.406,65.937 645.781,170.469 645.781,299.531C645.781,428.594 541.406,533.125 412.5,533.125ZM512.5,266.719L445.781,266.719L445.781,166.719C445.781,148.281 430.938,133.438 412.5,133.438C394.063,133.438 379.219,148.281 379.219,166.719L379.219,300C379.219,318.438 394.219,333.281 412.5,333.281L512.5,333.281C530.938,333.281 545.781,318.438 545.781,300C545.781,281.563 530.938,266.719 512.5,266.719Z" style="fill:rgb(0,133,0);fill-rule:nonzero;"/>
</svg>
