<?xml version="1.0" encoding="UTF-8" standalone="no"?>
<!DOCTYPE svg PUBLIC "-//W3C//DTD SVG 1.1//EN" "http://www.w3.org/Graphics/SVG/1.1/DTD/svg11.dtd">
<svg width="100%" height="100%" viewBox="0 0 800 800" version="1.1" xmlns="http://www.w3.org/2000/svg" xmlns:xlink="http://www.w3.org/1999/xlink" xml:space="preserve" xmlns:serif="http://www.serif.com/" style="fill-rule:evenodd;clip-rule:evenodd;stroke-linejoin:round;stroke-miterlimit:2;">
    <g>
        <path d="M634.334,97.063C569.627,32.355 484.805,0 399.995,0C315.188,0 230.38,32.355 165.67,97.063C36.273,226.453 36.273,436.297 165.67,565.702L399.995,800L634.333,565.702C763.725,436.297 763.725,226.453 634.334,97.063ZM597.387,528.741L399.995,726.106L202.625,528.755C93.792,419.916 93.792,242.836 202.625,134.009C255.341,81.294 325.439,52.256 399.997,52.256C474.555,52.256 544.659,81.294 597.375,134.009C706.214,242.834 706.214,419.916 597.387,528.741Z" style="fill:rgb(149,0,0);fill-rule:nonzero;"/>
        <path d="M399.995,333.136C447.672,333.136 486.322,294.505 486.322,246.803C486.322,199.127 447.672,160.483 399.995,160.483C352.306,160.483 313.656,199.127 313.656,246.803C313.656,294.505 352.308,333.136 399.995,333.136Z" style="fill:rgb(149,0,0);fill-rule:nonzero;"/>
        <path d="M399.995,365.592C331.581,365.592 276.13,421.064 276.13,489.458L523.858,489.458C523.856,421.064 468.398,365.592 399.995,365.592Z" style="fill:rgb(149,0,0);fill-rule:nonzero;"/>
    </g>
</svg>
